<svg xmlns="http://www.w3.org/2000/svg" version="1.1" width="64" height="64">
<path d="M0 0 C1.826464 7.39783619 -0.20476735 14.54454813 -3.81640625 21.1328125 C-7.0469373 26.22916182 -10.46466385 29.66556495 -15.5625 32.875 C-20.86808748 36.74976741 -21.89698387 41.71955334 -23.24047852 47.87060547 C-24.38205453 52.88270538 -25.73018641 55.76568013 -30 59 C-31.32 59 -32.64 59 -34 59 C-35.14814997 56.70370006 -35.30769809 54.92301914 -35.5625 52.375 C-35.64628906 51.55773438 -35.73007812 50.74046875 -35.81640625 49.8984375 C-35.87699219 49.27195313 -35.93757813 48.64546875 -36 48 C-37.98172829 48.31686681 -37.98172829 48.31686681 -40 49 C-40.4640625 50.175625 -40.4640625 50.175625 -40.9375 51.375 C-42 54 -42 54 -44 55.75 C-48.20903803 57.50376585 -52.44952352 57.96629277 -57 58 C-58 57 -58 57 -58.25 53.875 C-57.91666586 48.70832076 -56.78143649 44.67347064 -52.9375 41.0625 C-51 40 -51 40 -49 40 C-48.34 38.02 -47.68 36.04 -47 34 C-50.96 34 -54.92 34 -59 34 C-57.75693923 27.78469617 -57.75693923 27.78469617 -54 25 C-52.04930644 24.44845255 -50.09346462 23.90561864 -48.11132812 23.48071289 C-38.80983264 21.48129754 -34.71499218 18.46082543 -29.17578125 10.8828125 C-23.63943004 3.54739563 -16.75462661 1.27910226 -8.015625 -0.65234375 C-5.03022458 -0.99651556 -2.88403707 -0.77441736 0 0 Z " fill="#9171A0" transform="translate(62,2)"/>
<path d="M0 0 C3.70345169 1.52495069 6.37407327 3.8641371 8.75 7.0625 C10.08382513 9.17498833 10.08382513 9.17498833 13.125 9.875 C11.21308276 20.13187366 -2.48189443 29.36471078 -10.64404297 35.12304688 C-12.04325304 36.05722174 -13.45749215 36.9688306 -14.875 37.875 C-16.5771698 36.3074482 -18.26140554 34.72040216 -19.9375 33.125 C-20.87722656 32.24328125 -21.81695313 31.3615625 -22.78515625 30.453125 C-23.81962891 29.17695312 -23.81962891 29.17695312 -24.875 27.875 C-24.53761547 24.78902545 -23.41932403 22.99935821 -21.3984375 20.703125 C-20.89562256 20.1246582 -20.39280762 19.54619141 -19.87475586 18.95019531 C-19.07050171 18.04672363 -19.07050171 18.04672363 -18.25 17.125 C-17.70674072 16.50463867 -17.16348145 15.88427734 -16.60375977 15.24511719 C-15.52358223 14.01255948 -14.44071421 12.78235368 -13.35498047 11.5546875 C-10.96345338 8.84045022 -8.62712719 6.07850765 -6.27734375 3.328125 C-4.3629137 1.34437018 -2.87159153 -0.19143944 0 0 Z " fill="#BDC5E1" transform="translate(42.875,9.125)"/>
<path d="M0 0 C1.826464 7.39783619 -0.20476735 14.54454813 -3.81640625 21.1328125 C-7.06054782 26.25063319 -10.54193696 29.71979676 -15.625 33 C-21.92378894 37.59928434 -22.66342701 44.73764189 -24 52 C-24.99 52 -25.98 52 -27 52 C-26.855625 51.16855469 -26.71125 50.33710937 -26.5625 49.48046875 C-26.376875 48.39378906 -26.19125 47.30710938 -26 46.1875 C-25.814375 45.10855469 -25.62875 44.02960937 -25.4375 42.91796875 C-24.92586214 39.99729102 -24.92586214 39.99729102 -25 37 C-23.77832031 35.63720703 -23.77832031 35.63720703 -22.078125 34.2578125 C-21.46453125 33.74863281 -20.8509375 33.23945312 -20.21875 32.71484375 C-19.5690625 32.19019531 -18.919375 31.66554687 -18.25 31.125 C-10.67636172 25.19355059 -10.67636172 25.19355059 -6 17 C-6.556875 16.938125 -7.11375 16.87625 -7.6875 16.8125 C-11.58546656 15.44294418 -13.96627759 12.24046689 -16.5625 9.125 C-17.93366126 7.81382355 -17.93366126 7.81382355 -19.8125 8 C-26.40889955 11.01549693 -30.46251604 16.82714749 -34.8515625 22.37890625 C-36.78823172 24.74164269 -38.79981508 26.88443757 -41 29 C-41.66 28.67 -42.32 28.34 -43 28 C-42.01 26.68 -41.02 25.36 -40 24 C-40.886875 24.33 -41.77375 24.66 -42.6875 25 C-45.70923347 25.91222143 -47.88373706 26.18330958 -51 26 C-48.53830598 23.00209541 -46.7010332 22.63109135 -42.9375 22.0625 C-37.67685801 20.77333082 -35.08668497 18.38243132 -31.875 14.1875 C-25.05585826 5.30025789 -18.96748342 1.76817568 -8.015625 -0.65234375 C-5.03022458 -0.99651556 -2.88403707 -0.77441736 0 0 Z " fill="#906FA0" transform="translate(62,2)"/>
<path d="M0 0 C0.8971875 0.309375 0.8971875 0.309375 1.8125 0.625 C1.6875 2.375 1.6875 2.375 0.8125 4.625 C-1.18080842 5.96831654 -3.18134866 7.30094012 -5.1875 8.625 C-5.59871094 9.33140625 -6.00992188 10.0378125 -6.43359375 10.765625 C-8.91158025 14.80546046 -12.11317448 18.01863574 -15.375 21.4375 C-16.02919922 22.13037109 -16.68339844 22.82324219 -17.35742188 23.53710938 C-18.96345876 25.23692944 -20.57353642 26.93271031 -22.1875 28.625 C-23.1775 28.295 -24.1675 27.965 -25.1875 27.625 C-24.60200868 24.56918249 -23.76108864 22.78261014 -21.7109375 20.453125 C-21.20812256 19.8746582 -20.70530762 19.29619141 -20.18725586 18.70019531 C-19.38300171 17.79672363 -19.38300171 17.79672363 -18.5625 16.875 C-18.01924072 16.25463867 -17.47598145 15.63427734 -16.91625977 14.99511719 C-15.83608223 13.76255948 -14.75321421 12.53235368 -13.66748047 11.3046875 C-11.27595338 8.59045022 -8.93962719 5.82850765 -6.58984375 3.078125 C-3.10551766 -0.53237446 -3.10551766 -0.53237446 0 0 Z " fill="#D2DCF0" transform="translate(43.1875,9.375)"/>
<path d="M0 0 C-0.08743331 1.91750286 -0.1956189 3.83406665 -0.3125 5.75 C-0.37050781 6.81734375 -0.42851563 7.8846875 -0.48828125 8.984375 C-1.03090154 12.1821068 -1.85071145 13.62598691 -4 16 C-9.08773488 13.67417834 -11.65913691 9.94071529 -14 5 C-14 4.01 -14 3.02 -14 2 C-9.10945915 0.65088528 -5.10629224 -0.11704968 0 0 Z " fill="#E2779A" transform="translate(60,4)"/>
<path d="M0 0 C0.66 0.66 1.32 1.32 2 2 C1.8125 5.5 1.8125 5.5 1 9 C-2.22143276 11.14762184 -3.2595467 11.561068 -7 11 C-9.2855347 8.87208838 -9.92303658 7.52591672 -10.375 4.4375 C-10 2 -10 2 -8.9375 0.125 C-5.82785011 -1.68060316 -3.38260527 -0.79952488 0 0 Z " fill="#9277A7" transform="translate(47,16)"/>
<path d="M0 0 C1.98 1.65 3.96 3.3 6 5 C5.25 9.75 5.25 9.75 3 12 C0.8359375 12.4140625 0.8359375 12.4140625 -1.625 12.625 C-2.44226563 12.69976562 -3.25953125 12.77453125 -4.1015625 12.8515625 C-4.72804688 12.90054688 -5.35453125 12.94953125 -6 13 C-6.32470459 8.86001651 -6.4304413 6.66000999 -4.125 3.125 C-2 1 -2 1 0 0 Z " fill="#F1CE98" transform="translate(13,44)"/>
<path d="M0 0 C0.66 0.33 1.32 0.66 2 1 C1.525625 1.845625 1.05125 2.69125 0.5625 3.5625 C-1.05721513 7.12587329 -1.61256143 10.12561425 -2 14 C3.20540698 13.03603575 7.59913433 12.12319499 12 9 C11.71006344 11.80272011 11.21330565 12.81421766 9.0625 14.6875 C4.82967299 16.50156872 0.5947476 16.96596483 -4 17 C-5 16 -5 16 -5.25 12.875 C-4.91968365 7.75509659 -3.72734541 3.72734541 0 0 Z " fill="#936DA0" transform="translate(9,43)"/>
<path d="M0 0 C-1.47283742 3.43662064 -2.91164511 5.83815158 -6 8 C-9.35927054 8.3380398 -12.63578059 8.23112958 -16 8 C-15.03981909 5.59954772 -14.4897607 4.27456282 -12.1953125 2.98828125 C-11.51210937 2.76527344 -10.82890625 2.54226562 -10.125 2.3125 C-9.44695313 2.08175781 -8.76890625 1.85101562 -8.0703125 1.61328125 C-2.62420382 0 -2.62420382 0 0 0 Z " fill="#EFD9AC" transform="translate(22,26)"/>
<path d="M0 0 C-0.62184263 9.84226785 -0.62184263 9.84226785 -4 14 C-4.99 14.33 -5.98 14.66 -7 15 C-7.91714482 6.25315584 -7.91714482 6.25315584 -5.69921875 3.22265625 C-1.78532609 0 -1.78532609 0 0 0 Z " fill="#F2DBAD" transform="translate(37,43)"/>
<path d="M0 0 C2.625 0.375 2.625 0.375 5 1 C5.625 3.375 5.625 3.375 6 6 C5.34 6.66 4.68 7.32 4 8 C1.375 7.625 1.375 7.625 -1 7 C-1.625 4.625 -1.625 4.625 -2 2 C-1.34 1.34 -0.68 0.68 0 0 Z " fill="#AADBF8" transform="translate(41,17)"/>
<path d="M0 0 C1.17539996 0.92652701 2.34010577 1.86663387 3.5 2.8125 C4.1496875 3.33457031 4.799375 3.85664062 5.46875 4.39453125 C7 6 7 6 7 9 C4.32142828 8.63803085 2.39019086 8.26012724 0.125 6.75 C-1 5 -1 5 -0.6875 2.3125 C-0.460625 1.549375 -0.23375 0.78625 0 0 Z " fill="#A9B1CC" transform="translate(17,39)"/>
<path d="M0 0 C2.0625 0.4375 2.0625 0.4375 4 1 C4.33 2.32 4.66 3.64 5 5 C2.35261084 6.4606285 1.10551666 7 -2 7 C-1.125 1.125 -1.125 1.125 0 0 Z " fill="#F9EBD5" transform="translate(13,46)"/>
<path d="M0 0 C0.99 0.33 1.98 0.66 3 1 C1.72403685 3.55192629 0.62843884 3.99500868 -2 5 C-2.99 4.67 -3.98 4.34 -5 4 C-2.6875 1.9375 -2.6875 1.9375 0 0 Z " fill="#9D80A4" transform="translate(35,41)"/>
</svg>