<?xml version="1.0" encoding="UTF-8"?>
<svg version="1.1" xmlns="http://www.w3.org/2000/svg" width="48" height="48">
<path d="M0 0 C5.28 0 10.56 0 16 0 C16 12.54 16 25.08 16 38 C6.1 38 -3.8 38 -14 38 C-14 29.42 -14 20.84 -14 12 C-14.66 11.67 -15.32 11.34 -16 11 C-15.45925627 7.21479387 -13.92427254 5.40822445 -11 3 C-10.01 3 -9.02 3 -8 3 C-7.67 3.66 -7.34 4.32 -7 5 C-3.90837736 3.61410019 -2.50816459 2.50816459 0 0 Z M0 4 C0 4.66 0 5.32 0 6 C4.29 6 8.58 6 13 6 C13 4.68 13 3.36 13 2 C11.39620659 1.94583812 9.79188594 1.90713362 8.1875 1.875 C7.29417969 1.85179687 6.40085937 1.82859375 5.48046875 1.8046875 C2.74597286 1.81714173 2.74597286 1.81714173 0 4 Z " fill="#EB3442" transform="translate(23,5)"/>
<path d="M0 0 C0.66 0 1.32 0 2 0 C0.125 3.875 0.125 3.875 -1 5 C-1.15215174 7.28812814 -1.22186492 9.58199128 -1.25 11.875 C-1.27578125 13.13054688 -1.3015625 14.38609375 -1.328125 15.6796875 C-1.31698951 18.96552309 -1.31698951 18.96552309 0.515625 20.8203125 C1.00546875 21.20960937 1.4953125 21.59890625 2 22 C2 22.66 2 23.32 2 24 C-1.875 22.125 -1.875 22.125 -3 21 C-4.95422866 20.84832852 -6.91509729 20.77820004 -8.875 20.75 C-9.94492187 20.72421875 -11.01484375 20.6984375 -12.1171875 20.671875 C-15.34287505 21.03902643 -15.98658083 21.59402741 -18 24 C-18.66 24 -19.32 24 -20 24 C-18.125 20.125 -18.125 20.125 -17 19 C-16.90043991 16.7101179 -16.8703128 14.41704063 -16.875 12.125 C-16.87242188 10.86945312 -16.86984375 9.61390625 -16.8671875 8.3203125 C-16.84592923 4.99878218 -16.84592923 4.99878218 -18 2 C-17.01 2.33 -16.02 2.66 -15 3 C-13.00346488 3.1441942 -11.00151894 3.2205659 -9 3.25 C-7.4221875 3.28867187 -7.4221875 3.28867187 -5.8125 3.328125 C-2.63938277 2.95792799 -1.99153672 2.36494985 0 0 Z " fill="#B51624" transform="translate(33,15)"/>
<path d="M0 0 C3.3 0 6.6 0 10 0 C10 3.96 10 7.92 10 12 C6.7 12 3.4 12 0 12 C0 8.04 0 4.08 0 0 Z " fill="#EB3442" transform="translate(19,21)"/>
<path d="M0 0 C-1.44077046 3.36179774 -3.24750021 5.59156268 -6 8 C-6.66 8 -7.32 8 -8 8 C-7.32253522 3.25774652 -4.9532836 0 0 0 Z " fill="#F04551" transform="translate(15,8)"/>
<path d="M0 0 C0.99 0.33 1.98 0.66 3 1 C1.02 3.31 -0.96 5.62 -3 8 C-3.66 7.67 -4.32 7.34 -5 7 C-3.70700306 4.11562221 -2.34058637 2.12780579 0 0 Z " fill="#B71826" transform="translate(14,10)"/>
</svg>
